<mxfile host="app.diagrams.net" modified="2022-05-04T09:44:59.140Z" agent="5.0 (Windows NT 10.0; Win64; x64) AppleWebKit/537.36 (KHTML, like Gecko) Chrome/100.0.4896.127 Safari/537.36" etag="ooGm-G6E7DeQxcMm3I05" version="17.5.0" type="github">
  <diagram id="wnQvHYDH7iyhFLXYOBRE" name="Page-1">
    <mxGraphModel dx="2647" dy="953" grid="1" gridSize="10" guides="1" tooltips="1" connect="1" arrows="1" fold="1" page="1" pageScale="1" pageWidth="1200" pageHeight="1920" math="0" shadow="0">
      <root>
        <mxCell id="0" />
        <mxCell id="1" parent="0" />
        <mxCell id="iWZ5erF8Yjs6RMHySBTV-27" style="edgeStyle=orthogonalEdgeStyle;rounded=0;orthogonalLoop=1;jettySize=auto;html=1;exitX=0;exitY=0.5;exitDx=0;exitDy=0;exitPerimeter=0;entryX=0.74;entryY=0.167;entryDx=0;entryDy=0;entryPerimeter=0;labelBackgroundColor=none;" edge="1" parent="1" source="iWZ5erF8Yjs6RMHySBTV-14" target="RTcbFT4hpoz8zOJbYkon-220">
          <mxGeometry relative="1" as="geometry" />
        </mxCell>
        <mxCell id="RTcbFT4hpoz8zOJbYkon-8" value="" style="edgeStyle=orthogonalEdgeStyle;rounded=0;orthogonalLoop=1;jettySize=auto;html=1;" parent="1" source="RTcbFT4hpoz8zOJbYkon-1" target="RTcbFT4hpoz8zOJbYkon-6" edge="1">
          <mxGeometry relative="1" as="geometry">
            <Array as="points">
              <mxPoint x="867.5" y="1025" />
            </Array>
          </mxGeometry>
        </mxCell>
        <mxCell id="RTcbFT4hpoz8zOJbYkon-1" value="" style="sketch=0;pointerEvents=1;shadow=0;dashed=0;html=1;strokeColor=none;fillColor=#505050;labelPosition=center;verticalLabelPosition=bottom;verticalAlign=top;outlineConnect=0;align=center;shape=mxgraph.office.devices.workstation_pc;" parent="1" vertex="1">
          <mxGeometry x="841.5" y="900" width="53" height="59" as="geometry" />
        </mxCell>
        <mxCell id="RTcbFT4hpoz8zOJbYkon-11" value="" style="edgeStyle=orthogonalEdgeStyle;rounded=0;orthogonalLoop=1;jettySize=auto;html=1;" parent="1" source="RTcbFT4hpoz8zOJbYkon-2" target="RTcbFT4hpoz8zOJbYkon-6" edge="1">
          <mxGeometry relative="1" as="geometry" />
        </mxCell>
        <mxCell id="RTcbFT4hpoz8zOJbYkon-2" value="" style="sketch=0;pointerEvents=1;shadow=0;dashed=0;html=1;strokeColor=none;fillColor=#505050;labelPosition=center;verticalLabelPosition=bottom;verticalAlign=top;outlineConnect=0;align=center;shape=mxgraph.office.devices.workstation_pc;" parent="1" vertex="1">
          <mxGeometry x="951.5" y="900" width="53" height="59" as="geometry" />
        </mxCell>
        <mxCell id="RTcbFT4hpoz8zOJbYkon-46" style="edgeStyle=orthogonalEdgeStyle;rounded=0;orthogonalLoop=1;jettySize=auto;html=1;exitX=0;exitY=0.5;exitDx=0;exitDy=0;exitPerimeter=0;entryX=1;entryY=0.5;entryDx=0;entryDy=0;entryPerimeter=0;" parent="1" source="RTcbFT4hpoz8zOJbYkon-6" target="RTcbFT4hpoz8zOJbYkon-47" edge="1">
          <mxGeometry relative="1" as="geometry">
            <mxPoint x="680" y="1080" as="targetPoint" />
            <Array as="points">
              <mxPoint x="820" y="1025" />
              <mxPoint x="820" y="1215" />
            </Array>
          </mxGeometry>
        </mxCell>
        <mxCell id="RTcbFT4hpoz8zOJbYkon-6" value="" style="sketch=0;points=[[0.015,0.015,0],[0.985,0.015,0],[0.985,0.985,0],[0.015,0.985,0],[0.25,0,0],[0.5,0,0],[0.75,0,0],[1,0.25,0],[1,0.5,0],[1,0.75,0],[0.75,1,0],[0.5,1,0],[0.25,1,0],[0,0.75,0],[0,0.5,0],[0,0.25,0]];verticalLabelPosition=bottom;html=1;verticalAlign=top;aspect=fixed;align=center;pointerEvents=1;shape=mxgraph.cisco19.rect;prIcon=l2_switch;fillColor=#FAFAFA;strokeColor=#005073;" parent="1" vertex="1">
          <mxGeometry x="953" y="1000" width="50" height="50" as="geometry" />
        </mxCell>
        <mxCell id="RTcbFT4hpoz8zOJbYkon-13" value="" style="edgeStyle=orthogonalEdgeStyle;rounded=0;orthogonalLoop=1;jettySize=auto;html=1;entryX=1;entryY=0.5;entryDx=0;entryDy=0;entryPerimeter=0;" parent="1" source="RTcbFT4hpoz8zOJbYkon-9" target="RTcbFT4hpoz8zOJbYkon-6" edge="1">
          <mxGeometry relative="1" as="geometry">
            <mxPoint x="1061.5" y="1050" as="targetPoint" />
            <Array as="points">
              <mxPoint x="1111.5" y="1025" />
            </Array>
          </mxGeometry>
        </mxCell>
        <mxCell id="RTcbFT4hpoz8zOJbYkon-9" value="" style="sketch=0;pointerEvents=1;shadow=0;dashed=0;html=1;strokeColor=none;fillColor=#505050;labelPosition=center;verticalLabelPosition=bottom;verticalAlign=top;outlineConnect=0;align=center;shape=mxgraph.office.devices.workstation_pc;" parent="1" vertex="1">
          <mxGeometry x="1084.5" y="900" width="53" height="59" as="geometry" />
        </mxCell>
        <mxCell id="RTcbFT4hpoz8zOJbYkon-41" value="" style="edgeStyle=orthogonalEdgeStyle;rounded=0;orthogonalLoop=1;jettySize=auto;html=1;entryX=0;entryY=0.5;entryDx=0;entryDy=0;entryPerimeter=0;" parent="1" source="RTcbFT4hpoz8zOJbYkon-17" target="RTcbFT4hpoz8zOJbYkon-33" edge="1">
          <mxGeometry relative="1" as="geometry">
            <Array as="points">
              <mxPoint x="879" y="1275" />
            </Array>
          </mxGeometry>
        </mxCell>
        <mxCell id="RTcbFT4hpoz8zOJbYkon-17" value="" style="sketch=0;pointerEvents=1;shadow=0;dashed=0;html=1;strokeColor=none;fillColor=#505050;labelPosition=center;verticalLabelPosition=bottom;verticalAlign=top;outlineConnect=0;align=center;shape=mxgraph.office.devices.workstation_pc;points=[];" parent="1" vertex="1">
          <mxGeometry x="853" y="1150" width="53" height="59" as="geometry" />
        </mxCell>
        <mxCell id="RTcbFT4hpoz8zOJbYkon-43" value="" style="edgeStyle=orthogonalEdgeStyle;rounded=0;orthogonalLoop=1;jettySize=auto;html=1;entryX=0.5;entryY=0;entryDx=0;entryDy=0;entryPerimeter=0;" parent="1" source="RTcbFT4hpoz8zOJbYkon-19" target="RTcbFT4hpoz8zOJbYkon-33" edge="1">
          <mxGeometry relative="1" as="geometry" />
        </mxCell>
        <mxCell id="RTcbFT4hpoz8zOJbYkon-19" value="" style="sketch=0;pointerEvents=1;shadow=0;dashed=0;html=1;strokeColor=none;fillColor=#505050;labelPosition=center;verticalLabelPosition=bottom;verticalAlign=top;outlineConnect=0;align=center;shape=mxgraph.office.devices.workstation_pc;" parent="1" vertex="1">
          <mxGeometry x="963" y="1150" width="53" height="59" as="geometry" />
        </mxCell>
        <mxCell id="RTcbFT4hpoz8zOJbYkon-45" value="" style="edgeStyle=orthogonalEdgeStyle;rounded=0;orthogonalLoop=1;jettySize=auto;html=1;entryX=1;entryY=0.5;entryDx=0;entryDy=0;entryPerimeter=0;" parent="1" source="RTcbFT4hpoz8zOJbYkon-22" target="RTcbFT4hpoz8zOJbYkon-33" edge="1">
          <mxGeometry relative="1" as="geometry">
            <Array as="points">
              <mxPoint x="1123" y="1275" />
            </Array>
          </mxGeometry>
        </mxCell>
        <mxCell id="RTcbFT4hpoz8zOJbYkon-22" value="" style="sketch=0;pointerEvents=1;shadow=0;dashed=0;html=1;strokeColor=none;fillColor=#505050;labelPosition=center;verticalLabelPosition=bottom;verticalAlign=top;outlineConnect=0;align=center;shape=mxgraph.office.devices.workstation_pc;" parent="1" vertex="1">
          <mxGeometry x="1096" y="1150" width="53" height="59" as="geometry" />
        </mxCell>
        <mxCell id="RTcbFT4hpoz8zOJbYkon-23" value="" style="edgeStyle=orthogonalEdgeStyle;rounded=0;orthogonalLoop=1;jettySize=auto;html=1;entryX=0;entryY=0.5;entryDx=0;entryDy=0;entryPerimeter=0;" parent="1" source="RTcbFT4hpoz8zOJbYkon-24" target="RTcbFT4hpoz8zOJbYkon-27" edge="1">
          <mxGeometry relative="1" as="geometry">
            <Array as="points">
              <mxPoint x="886" y="1520" />
            </Array>
          </mxGeometry>
        </mxCell>
        <mxCell id="RTcbFT4hpoz8zOJbYkon-24" value="" style="sketch=0;pointerEvents=1;shadow=0;dashed=0;html=1;strokeColor=none;fillColor=#505050;labelPosition=center;verticalLabelPosition=bottom;verticalAlign=top;outlineConnect=0;align=center;shape=mxgraph.office.devices.workstation_pc;" parent="1" vertex="1">
          <mxGeometry x="860" y="1390" width="53" height="59" as="geometry" />
        </mxCell>
        <mxCell id="RTcbFT4hpoz8zOJbYkon-25" value="" style="edgeStyle=orthogonalEdgeStyle;rounded=0;orthogonalLoop=1;jettySize=auto;html=1;" parent="1" source="RTcbFT4hpoz8zOJbYkon-26" target="RTcbFT4hpoz8zOJbYkon-27" edge="1">
          <mxGeometry relative="1" as="geometry" />
        </mxCell>
        <mxCell id="RTcbFT4hpoz8zOJbYkon-26" value="" style="sketch=0;pointerEvents=1;shadow=0;dashed=0;html=1;strokeColor=none;fillColor=#505050;labelPosition=center;verticalLabelPosition=bottom;verticalAlign=top;outlineConnect=0;align=center;shape=mxgraph.office.devices.workstation_pc;" parent="1" vertex="1">
          <mxGeometry x="970" y="1390" width="53" height="59" as="geometry" />
        </mxCell>
        <mxCell id="RTcbFT4hpoz8zOJbYkon-32" style="edgeStyle=orthogonalEdgeStyle;rounded=0;orthogonalLoop=1;jettySize=auto;html=1;exitX=0;exitY=0.5;exitDx=0;exitDy=0;exitPerimeter=0;entryX=1;entryY=0.5;entryDx=0;entryDy=0;entryPerimeter=0;" parent="1" source="RTcbFT4hpoz8zOJbYkon-27" target="RTcbFT4hpoz8zOJbYkon-47" edge="1">
          <mxGeometry relative="1" as="geometry">
            <mxPoint x="740" y="1215" as="targetPoint" />
            <Array as="points">
              <mxPoint x="820" y="1520" />
              <mxPoint x="820" y="1215" />
            </Array>
          </mxGeometry>
        </mxCell>
        <mxCell id="RTcbFT4hpoz8zOJbYkon-27" value="" style="sketch=0;points=[[0.015,0.015,0],[0.985,0.015,0],[0.985,0.985,0],[0.015,0.985,0],[0.25,0,0],[0.5,0,0],[0.75,0,0],[1,0.25,0],[1,0.5,0],[1,0.75,0],[0.75,1,0],[0.5,1,0],[0.25,1,0],[0,0.75,0],[0,0.5,0],[0,0.25,0]];verticalLabelPosition=bottom;html=1;verticalAlign=top;aspect=fixed;align=center;pointerEvents=1;shape=mxgraph.cisco19.rect;prIcon=l2_switch;fillColor=#FAFAFA;strokeColor=#005073;" parent="1" vertex="1">
          <mxGeometry x="971.5" y="1495" width="50" height="50" as="geometry" />
        </mxCell>
        <mxCell id="RTcbFT4hpoz8zOJbYkon-31" value="" style="edgeStyle=orthogonalEdgeStyle;rounded=0;orthogonalLoop=1;jettySize=auto;html=1;entryX=1;entryY=0.5;entryDx=0;entryDy=0;entryPerimeter=0;" parent="1" source="RTcbFT4hpoz8zOJbYkon-29" target="RTcbFT4hpoz8zOJbYkon-27" edge="1">
          <mxGeometry relative="1" as="geometry">
            <Array as="points">
              <mxPoint x="1130" y="1520" />
            </Array>
          </mxGeometry>
        </mxCell>
        <mxCell id="RTcbFT4hpoz8zOJbYkon-29" value="" style="sketch=0;pointerEvents=1;shadow=0;dashed=0;html=1;strokeColor=none;fillColor=#505050;labelPosition=center;verticalLabelPosition=bottom;verticalAlign=top;outlineConnect=0;align=center;shape=mxgraph.office.devices.workstation_pc;" parent="1" vertex="1">
          <mxGeometry x="1096" y="1390" width="53" height="59" as="geometry" />
        </mxCell>
        <mxCell id="RTcbFT4hpoz8zOJbYkon-36" style="edgeStyle=orthogonalEdgeStyle;rounded=0;orthogonalLoop=1;jettySize=auto;html=1;exitX=0;exitY=0.5;exitDx=0;exitDy=0;exitPerimeter=0;entryX=1;entryY=0.5;entryDx=0;entryDy=0;entryPerimeter=0;" parent="1" source="RTcbFT4hpoz8zOJbYkon-33" target="RTcbFT4hpoz8zOJbYkon-47" edge="1">
          <mxGeometry relative="1" as="geometry">
            <mxPoint x="740" y="1210" as="targetPoint" />
            <Array as="points">
              <mxPoint x="820" y="1275" />
              <mxPoint x="820" y="1215" />
            </Array>
          </mxGeometry>
        </mxCell>
        <mxCell id="RTcbFT4hpoz8zOJbYkon-33" value="" style="sketch=0;points=[[0.015,0.015,0],[0.985,0.015,0],[0.985,0.985,0],[0.015,0.985,0],[0.25,0,0],[0.5,0,0],[0.75,0,0],[1,0.25,0],[1,0.5,0],[1,0.75,0],[0.75,1,0],[0.5,1,0],[0.25,1,0],[0,0.75,0],[0,0.5,0],[0,0.25,0]];verticalLabelPosition=bottom;html=1;verticalAlign=top;aspect=fixed;align=center;pointerEvents=1;shape=mxgraph.cisco19.rect;prIcon=l2_switch;fillColor=#FAFAFA;strokeColor=#005073;" parent="1" vertex="1">
          <mxGeometry x="964.5" y="1250" width="50" height="50" as="geometry" />
        </mxCell>
        <mxCell id="RTcbFT4hpoz8zOJbYkon-47" value="" style="sketch=0;points=[[0.015,0.015,0],[0.985,0.015,0],[0.985,0.985,0],[0.015,0.985,0],[0.25,0,0],[0.5,0,0],[0.75,0,0],[1,0.25,0],[1,0.5,0],[1,0.75,0],[0.75,1,0],[0.5,1,0],[0.25,1,0],[0,0.75,0],[0,0.5,0],[0,0.25,0]];verticalLabelPosition=bottom;html=1;verticalAlign=top;aspect=fixed;align=center;pointerEvents=1;shape=mxgraph.cisco19.rect;prIcon=l3_switch;fillColor=#FAFAFA;strokeColor=#005073;" parent="1" vertex="1">
          <mxGeometry x="710" y="1190" width="50" height="50" as="geometry" />
        </mxCell>
        <mxCell id="RTcbFT4hpoz8zOJbYkon-130" value="" style="edgeStyle=none;rounded=0;orthogonalLoop=1;jettySize=auto;html=1;" parent="1" target="RTcbFT4hpoz8zOJbYkon-129" edge="1">
          <mxGeometry relative="1" as="geometry">
            <mxPoint x="175" y="1490" as="sourcePoint" />
          </mxGeometry>
        </mxCell>
        <mxCell id="RTcbFT4hpoz8zOJbYkon-154" style="edgeStyle=none;rounded=0;orthogonalLoop=1;jettySize=auto;html=1;exitX=1;exitY=0.5;exitDx=0;exitDy=0;exitPerimeter=0;entryX=0;entryY=0.5;entryDx=0;entryDy=0;entryPerimeter=0;" parent="1" source="RTcbFT4hpoz8zOJbYkon-129" target="RTcbFT4hpoz8zOJbYkon-136" edge="1">
          <mxGeometry relative="1" as="geometry">
            <Array as="points">
              <mxPoint x="380" y="1413" />
              <mxPoint x="380" y="1215" />
            </Array>
          </mxGeometry>
        </mxCell>
        <mxCell id="RTcbFT4hpoz8zOJbYkon-129" value="" style="sketch=0;points=[[0.015,0.015,0],[0.985,0.015,0],[0.985,0.985,0],[0.015,0.985,0],[0.25,0,0],[0.5,0,0],[0.75,0,0],[1,0.25,0],[1,0.5,0],[1,0.75,0],[0.75,1,0],[0.5,1,0],[0.25,1,0],[0,0.75,0],[0,0.5,0],[0,0.25,0]];verticalLabelPosition=bottom;html=1;verticalAlign=top;aspect=fixed;align=center;pointerEvents=1;shape=mxgraph.cisco19.rect;prIcon=l2_switch;fillColor=#FAFAFA;strokeColor=#005073;" parent="1" vertex="1">
          <mxGeometry x="150" y="1390" width="50" height="50" as="geometry" />
        </mxCell>
        <mxCell id="RTcbFT4hpoz8zOJbYkon-133" style="edgeStyle=orthogonalEdgeStyle;rounded=0;orthogonalLoop=1;jettySize=auto;html=1;entryX=0;entryY=0.5;entryDx=0;entryDy=0;entryPerimeter=0;exitX=0.649;exitY=0.013;exitDx=0;exitDy=0;exitPerimeter=0;" parent="1" source="RTcbFT4hpoz8zOJbYkon-180" target="RTcbFT4hpoz8zOJbYkon-129" edge="1">
          <mxGeometry relative="1" as="geometry">
            <mxPoint x="10" y="1488" as="sourcePoint" />
            <mxPoint x="-75.75" y="1399" as="targetPoint" />
            <Array as="points">
              <mxPoint x="23" y="1488" />
              <mxPoint x="20" y="1488" />
              <mxPoint x="20" y="1415" />
            </Array>
          </mxGeometry>
        </mxCell>
        <mxCell id="RTcbFT4hpoz8zOJbYkon-134" style="edgeStyle=orthogonalEdgeStyle;rounded=0;orthogonalLoop=1;jettySize=auto;html=1;exitX=0.539;exitY=0.028;exitDx=0;exitDy=0;exitPerimeter=0;entryX=1;entryY=0.5;entryDx=0;entryDy=0;entryPerimeter=0;" parent="1" source="RTcbFT4hpoz8zOJbYkon-182" target="RTcbFT4hpoz8zOJbYkon-129" edge="1">
          <mxGeometry relative="1" as="geometry">
            <mxPoint x="290" y="1486.2" as="sourcePoint" />
            <mxPoint x="394" y="1413" as="targetPoint" />
            <Array as="points">
              <mxPoint x="280" y="1415" />
            </Array>
          </mxGeometry>
        </mxCell>
        <mxCell id="RTcbFT4hpoz8zOJbYkon-135" value="" style="sketch=0;aspect=fixed;html=1;points=[];align=center;image;fontSize=12;image=img/lib/mscae/SQL_Servers.svg;" parent="1" vertex="1">
          <mxGeometry x="168.5" y="1486" width="50" height="50" as="geometry" />
        </mxCell>
        <mxCell id="RTcbFT4hpoz8zOJbYkon-195" style="edgeStyle=none;rounded=0;orthogonalLoop=1;jettySize=auto;html=1;exitX=0;exitY=0.5;exitDx=0;exitDy=0;exitPerimeter=0;entryX=1;entryY=0.5;entryDx=0;entryDy=0;entryPerimeter=0;" parent="1" source="RTcbFT4hpoz8zOJbYkon-136" target="RTcbFT4hpoz8zOJbYkon-179" edge="1">
          <mxGeometry relative="1" as="geometry">
            <mxPoint x="310" y="950" as="targetPoint" />
            <Array as="points">
              <mxPoint x="390" y="1215" />
              <mxPoint x="390" y="860" />
            </Array>
          </mxGeometry>
        </mxCell>
        <mxCell id="RTcbFT4hpoz8zOJbYkon-136" value="" style="sketch=0;points=[[0.015,0.015,0],[0.985,0.015,0],[0.985,0.985,0],[0.015,0.985,0],[0.25,0,0],[0.5,0,0],[0.75,0,0],[1,0.25,0],[1,0.5,0],[1,0.75,0],[0.75,1,0],[0.5,1,0],[0.25,1,0],[0,0.75,0],[0,0.5,0],[0,0.25,0]];verticalLabelPosition=bottom;html=1;verticalAlign=top;aspect=fixed;align=center;pointerEvents=1;shape=mxgraph.cisco19.rect;prIcon=l3_switch;fillColor=#FAFAFA;strokeColor=#005073;" parent="1" vertex="1">
          <mxGeometry x="430" y="1190" width="50" height="50" as="geometry" />
        </mxCell>
        <mxCell id="RTcbFT4hpoz8zOJbYkon-151" style="edgeStyle=none;rounded=0;orthogonalLoop=1;jettySize=auto;html=1;entryX=0;entryY=0.5;entryDx=0;entryDy=0;entryPerimeter=0;" parent="1" source="RTcbFT4hpoz8zOJbYkon-139" target="RTcbFT4hpoz8zOJbYkon-145" edge="1">
          <mxGeometry relative="1" as="geometry">
            <Array as="points">
              <mxPoint x="117.5" y="1152" />
            </Array>
          </mxGeometry>
        </mxCell>
        <mxCell id="RTcbFT4hpoz8zOJbYkon-139" value="" style="sketch=0;pointerEvents=1;shadow=0;dashed=0;html=1;strokeColor=none;fillColor=#505050;labelPosition=center;verticalLabelPosition=bottom;verticalAlign=top;outlineConnect=0;align=center;shape=mxgraph.office.servers.file_server;" parent="1" vertex="1">
          <mxGeometry x="94.5" y="1217" width="45" height="56" as="geometry" />
        </mxCell>
        <mxCell id="RTcbFT4hpoz8zOJbYkon-152" style="edgeStyle=none;rounded=0;orthogonalLoop=1;jettySize=auto;html=1;entryX=0;entryY=0.5;entryDx=0;entryDy=0;entryPerimeter=0;" parent="1" source="RTcbFT4hpoz8zOJbYkon-140" target="RTcbFT4hpoz8zOJbYkon-145" edge="1">
          <mxGeometry relative="1" as="geometry">
            <Array as="points">
              <mxPoint x="28.5" y="1152" />
            </Array>
          </mxGeometry>
        </mxCell>
        <object label="" Name="Internal Web server" id="RTcbFT4hpoz8zOJbYkon-140">
          <mxCell style="sketch=0;pointerEvents=1;shadow=0;dashed=0;html=1;strokeColor=none;fillColor=#505050;labelPosition=center;verticalLabelPosition=bottom;verticalAlign=top;outlineConnect=0;align=center;shape=mxgraph.office.servers.web_server;" parent="1" vertex="1">
            <mxGeometry x="4.5" y="1217" width="48" height="57" as="geometry" />
          </mxCell>
        </object>
        <mxCell id="RTcbFT4hpoz8zOJbYkon-146" style="edgeStyle=none;rounded=0;orthogonalLoop=1;jettySize=auto;html=1;entryX=0.5;entryY=1;entryDx=0;entryDy=0;entryPerimeter=0;" parent="1" source="RTcbFT4hpoz8zOJbYkon-143" target="RTcbFT4hpoz8zOJbYkon-145" edge="1">
          <mxGeometry relative="1" as="geometry">
            <Array as="points">
              <mxPoint x="179.5" y="1243" />
            </Array>
          </mxGeometry>
        </mxCell>
        <object label="" Name="DNS server" id="RTcbFT4hpoz8zOJbYkon-143">
          <mxCell style="sketch=0;pointerEvents=1;shadow=0;dashed=0;html=1;strokeColor=none;fillColor=#505050;labelPosition=center;verticalLabelPosition=bottom;verticalAlign=top;outlineConnect=0;align=center;shape=mxgraph.office.servers.server_generic;" parent="1" vertex="1">
            <mxGeometry x="194.5" y="1217" width="27" height="52" as="geometry" />
          </mxCell>
        </object>
        <mxCell id="RTcbFT4hpoz8zOJbYkon-150" style="edgeStyle=none;rounded=0;orthogonalLoop=1;jettySize=auto;html=1;entryX=1;entryY=0.5;entryDx=0;entryDy=0;entryPerimeter=0;" parent="1" source="RTcbFT4hpoz8zOJbYkon-144" target="RTcbFT4hpoz8zOJbYkon-145" edge="1">
          <mxGeometry relative="1" as="geometry">
            <Array as="points">
              <mxPoint x="284.5" y="1152" />
            </Array>
          </mxGeometry>
        </mxCell>
        <mxCell id="RTcbFT4hpoz8zOJbYkon-144" value="" style="sketch=0;pointerEvents=1;shadow=0;dashed=0;html=1;strokeColor=none;fillColor=#505050;labelPosition=center;verticalLabelPosition=bottom;verticalAlign=top;outlineConnect=0;align=center;shape=mxgraph.office.services.email_service;" parent="1" vertex="1">
          <mxGeometry x="257" y="1225" width="58" height="48" as="geometry" />
        </mxCell>
        <mxCell id="RTcbFT4hpoz8zOJbYkon-153" style="edgeStyle=none;rounded=0;orthogonalLoop=1;jettySize=auto;html=1;exitX=1;exitY=0.5;exitDx=0;exitDy=0;exitPerimeter=0;entryX=0;entryY=0.5;entryDx=0;entryDy=0;entryPerimeter=0;" parent="1" source="RTcbFT4hpoz8zOJbYkon-145" target="RTcbFT4hpoz8zOJbYkon-136" edge="1">
          <mxGeometry relative="1" as="geometry">
            <mxPoint x="412.5" y="1240" as="targetPoint" />
            <Array as="points">
              <mxPoint x="380" y="1152" />
              <mxPoint x="380" y="1215" />
            </Array>
          </mxGeometry>
        </mxCell>
        <mxCell id="RTcbFT4hpoz8zOJbYkon-145" value="" style="sketch=0;points=[[0.015,0.015,0],[0.985,0.015,0],[0.985,0.985,0],[0.015,0.985,0],[0.25,0,0],[0.5,0,0],[0.75,0,0],[1,0.25,0],[1,0.5,0],[1,0.75,0],[0.75,1,0],[0.5,1,0],[0.25,1,0],[0,0.75,0],[0,0.5,0],[0,0.25,0]];verticalLabelPosition=bottom;html=1;verticalAlign=top;aspect=fixed;align=center;pointerEvents=1;shape=mxgraph.cisco19.rect;prIcon=l2_switch;fillColor=#FAFAFA;strokeColor=#005073;" parent="1" vertex="1">
          <mxGeometry x="154.5" y="1127" width="50" height="50" as="geometry" />
        </mxCell>
        <mxCell id="RTcbFT4hpoz8zOJbYkon-164" style="edgeStyle=none;rounded=0;orthogonalLoop=1;jettySize=auto;html=1;entryX=0.5;entryY=1;entryDx=0;entryDy=0;entryPerimeter=0;" parent="1" source="RTcbFT4hpoz8zOJbYkon-159" edge="1">
          <mxGeometry relative="1" as="geometry">
            <mxPoint x="213" y="672" as="targetPoint" />
            <Array as="points">
              <mxPoint x="89.5" y="672" />
            </Array>
          </mxGeometry>
        </mxCell>
        <mxCell id="RTcbFT4hpoz8zOJbYkon-159" value="" style="sketch=0;pointerEvents=1;shadow=0;dashed=0;html=1;strokeColor=none;fillColor=#505050;labelPosition=center;verticalLabelPosition=bottom;verticalAlign=top;outlineConnect=0;align=center;shape=mxgraph.office.servers.web_server_blue;" parent="1" vertex="1">
          <mxGeometry x="65.5" y="710" width="48" height="57" as="geometry" />
        </mxCell>
        <mxCell id="RTcbFT4hpoz8zOJbYkon-167" style="edgeStyle=none;rounded=0;orthogonalLoop=1;jettySize=auto;html=1;entryX=0.5;entryY=1;entryDx=0;entryDy=0;entryPerimeter=0;" parent="1" source="RTcbFT4hpoz8zOJbYkon-160" edge="1">
          <mxGeometry relative="1" as="geometry">
            <mxPoint x="213" y="672" as="targetPoint" />
            <Array as="points">
              <mxPoint x="175.5" y="672" />
            </Array>
          </mxGeometry>
        </mxCell>
        <mxCell id="RTcbFT4hpoz8zOJbYkon-160" value="" style="sketch=0;pointerEvents=1;shadow=0;dashed=0;html=1;strokeColor=none;fillColor=#505050;labelPosition=center;verticalLabelPosition=bottom;verticalAlign=top;outlineConnect=0;align=center;shape=mxgraph.office.servers.web_server_orange;" parent="1" vertex="1">
          <mxGeometry x="152.5" y="710" width="48" height="57" as="geometry" />
        </mxCell>
        <mxCell id="RTcbFT4hpoz8zOJbYkon-168" style="edgeStyle=none;rounded=0;orthogonalLoop=1;jettySize=auto;html=1;entryX=0.77;entryY=0.257;entryDx=0;entryDy=0;entryPerimeter=0;" parent="1" source="RTcbFT4hpoz8zOJbYkon-161" edge="1" target="RTcbFT4hpoz8zOJbYkon-186">
          <mxGeometry relative="1" as="geometry">
            <mxPoint x="255.5" y="697" as="targetPoint" />
          </mxGeometry>
        </mxCell>
        <mxCell id="RTcbFT4hpoz8zOJbYkon-161" value="" style="sketch=0;pointerEvents=1;shadow=0;dashed=0;html=1;strokeColor=none;fillColor=#505050;labelPosition=center;verticalLabelPosition=bottom;verticalAlign=top;outlineConnect=0;align=center;shape=mxgraph.office.servers.web_server_green;" parent="1" vertex="1">
          <mxGeometry x="230.5" y="710" width="48" height="57" as="geometry" />
        </mxCell>
        <mxCell id="RTcbFT4hpoz8zOJbYkon-169" style="edgeStyle=none;rounded=0;orthogonalLoop=1;jettySize=auto;html=1;entryX=0.5;entryY=0;entryDx=0;entryDy=0;entryPerimeter=0;" parent="1" source="RTcbFT4hpoz8zOJbYkon-162" edge="1">
          <mxGeometry relative="1" as="geometry">
            <mxPoint x="263" y="672" as="targetPoint" />
            <Array as="points">
              <mxPoint x="349.5" y="672" />
            </Array>
          </mxGeometry>
        </mxCell>
        <mxCell id="RTcbFT4hpoz8zOJbYkon-162" value="" style="sketch=0;pointerEvents=1;shadow=0;dashed=0;html=1;strokeColor=none;fillColor=#505050;labelPosition=center;verticalLabelPosition=bottom;verticalAlign=top;outlineConnect=0;align=center;shape=mxgraph.office.servers.web_server_ghosted;" parent="1" vertex="1">
          <mxGeometry x="325" y="710" width="48" height="57" as="geometry" />
        </mxCell>
        <mxCell id="RTcbFT4hpoz8zOJbYkon-170" style="edgeStyle=none;rounded=0;orthogonalLoop=1;jettySize=auto;html=1;entryX=0.5;entryY=1;entryDx=0;entryDy=0;entryPerimeter=0;" parent="1" edge="1">
          <mxGeometry relative="1" as="geometry">
            <Array as="points">
              <mxPoint x="54.5" y="857" />
            </Array>
            <mxPoint x="54.50000000000023" y="944" as="sourcePoint" />
            <mxPoint x="180.5" y="857.0000000000002" as="targetPoint" />
          </mxGeometry>
        </mxCell>
        <mxCell id="RTcbFT4hpoz8zOJbYkon-172" style="edgeStyle=none;rounded=0;orthogonalLoop=1;jettySize=auto;html=1;entryX=0.5;entryY=1;entryDx=0;entryDy=0;entryPerimeter=0;" parent="1" edge="1">
          <mxGeometry relative="1" as="geometry">
            <Array as="points">
              <mxPoint x="140.5" y="857" />
            </Array>
            <mxPoint x="141.2532467532469" y="944" as="sourcePoint" />
            <mxPoint x="180.5" y="857.0000000000002" as="targetPoint" />
          </mxGeometry>
        </mxCell>
        <mxCell id="RTcbFT4hpoz8zOJbYkon-174" style="edgeStyle=none;rounded=0;orthogonalLoop=1;jettySize=auto;html=1;" parent="1" edge="1">
          <mxGeometry relative="1" as="geometry">
            <mxPoint x="220.5" y="882" as="targetPoint" />
            <mxPoint x="222.54469273743007" y="943" as="sourcePoint" />
          </mxGeometry>
        </mxCell>
        <mxCell id="RTcbFT4hpoz8zOJbYkon-176" style="edgeStyle=none;rounded=0;orthogonalLoop=1;jettySize=auto;html=1;entryX=0.5;entryY=0;entryDx=0;entryDy=0;entryPerimeter=0;" parent="1" edge="1">
          <mxGeometry relative="1" as="geometry">
            <Array as="points">
              <mxPoint x="314.5" y="857" />
            </Array>
            <mxPoint x="314.5000000000002" y="944" as="sourcePoint" />
            <mxPoint x="230.5" y="857.0000000000002" as="targetPoint" />
          </mxGeometry>
        </mxCell>
        <mxCell id="RTcbFT4hpoz8zOJbYkon-179" value="" style="sketch=0;points=[[0.015,0.015,0],[0.985,0.015,0],[0.985,0.985,0],[0.015,0.985,0],[0.25,0,0],[0.5,0,0],[0.75,0,0],[1,0.25,0],[1,0.5,0],[1,0.75,0],[0.75,1,0],[0.5,1,0],[0.25,1,0],[0,0.75,0],[0,0.5,0],[0,0.25,0]];verticalLabelPosition=bottom;html=1;verticalAlign=top;aspect=fixed;align=center;pointerEvents=1;shape=mxgraph.cisco19.rect;prIcon=l2_switch;fillColor=#FAFAFA;strokeColor=#005073;" parent="1" vertex="1">
          <mxGeometry x="180.5" y="835" width="50" height="50" as="geometry" />
        </mxCell>
        <mxCell id="RTcbFT4hpoz8zOJbYkon-180" value="" style="sketch=0;aspect=fixed;html=1;points=[];align=center;image;fontSize=12;image=img/lib/mscae/BlobBlock.svg;" parent="1" vertex="1">
          <mxGeometry x="-10" y="1490" width="50" height="42" as="geometry" />
        </mxCell>
        <mxCell id="RTcbFT4hpoz8zOJbYkon-183" style="edgeStyle=none;rounded=0;orthogonalLoop=1;jettySize=auto;html=1;entryX=0;entryY=0.5;entryDx=0;entryDy=0;entryPerimeter=0;" parent="1" source="RTcbFT4hpoz8zOJbYkon-181" target="RTcbFT4hpoz8zOJbYkon-129" edge="1">
          <mxGeometry relative="1" as="geometry">
            <Array as="points">
              <mxPoint x="110" y="1415" />
            </Array>
          </mxGeometry>
        </mxCell>
        <mxCell id="RTcbFT4hpoz8zOJbYkon-181" value="" style="sketch=0;aspect=fixed;html=1;points=[];align=center;image;fontSize=12;image=img/lib/mscae/SQL_Servers.svg;" parent="1" vertex="1">
          <mxGeometry x="90" y="1486" width="50" height="50" as="geometry" />
        </mxCell>
        <mxCell id="RTcbFT4hpoz8zOJbYkon-182" value="" style="sketch=0;aspect=fixed;html=1;points=[];align=center;image;fontSize=12;image=img/lib/mscae/Database_General.svg;" parent="1" vertex="1">
          <mxGeometry x="260" y="1486" width="38" height="50" as="geometry" />
        </mxCell>
        <mxCell id="RTcbFT4hpoz8zOJbYkon-184" value="" style="sketch=0;pointerEvents=1;shadow=0;dashed=0;html=1;strokeColor=none;fillColor=#505050;labelPosition=center;verticalLabelPosition=bottom;verticalAlign=top;outlineConnect=0;align=center;shape=mxgraph.office.servers.active_directory_federation_services_server;" parent="1" vertex="1">
          <mxGeometry x="38.5" y="945.5" width="45" height="56" as="geometry" />
        </mxCell>
        <mxCell id="RTcbFT4hpoz8zOJbYkon-198" style="edgeStyle=none;rounded=0;orthogonalLoop=1;jettySize=auto;html=1;exitX=1;exitY=0.5;exitDx=0;exitDy=0;exitPerimeter=0;entryX=0;entryY=0.5;entryDx=0;entryDy=0;entryPerimeter=0;" parent="1" source="RTcbFT4hpoz8zOJbYkon-185" target="RTcbFT4hpoz8zOJbYkon-191" edge="1">
          <mxGeometry relative="1" as="geometry">
            <Array as="points">
              <mxPoint x="430" y="580" />
              <mxPoint x="430" y="695" />
            </Array>
          </mxGeometry>
        </mxCell>
        <mxCell id="RTcbFT4hpoz8zOJbYkon-185" value="" style="sketch=0;points=[[0.015,0.015,0],[0.985,0.015,0],[0.985,0.985,0],[0.015,0.985,0],[0.25,0,0],[0.5,0,0],[0.75,0,0],[1,0.25,0],[1,0.5,0],[1,0.75,0],[0.75,1,0],[0.5,1,0],[0.25,1,0],[0,0.75,0],[0,0.5,0],[0,0.25,0]];verticalLabelPosition=bottom;html=1;verticalAlign=top;aspect=fixed;align=center;pointerEvents=1;shape=mxgraph.cisco19.rect;prIcon=web_application_firewall;fillColor=#FAFAFA;strokeColor=#005073;" parent="1" vertex="1">
          <mxGeometry x="213" y="560" width="64" height="50" as="geometry" />
        </mxCell>
        <mxCell id="RTcbFT4hpoz8zOJbYkon-187" style="edgeStyle=none;rounded=0;orthogonalLoop=1;jettySize=auto;html=1;entryX=0.5;entryY=1;entryDx=0;entryDy=0;entryPerimeter=0;" parent="1" source="RTcbFT4hpoz8zOJbYkon-186" target="RTcbFT4hpoz8zOJbYkon-185" edge="1">
          <mxGeometry relative="1" as="geometry" />
        </mxCell>
        <mxCell id="RTcbFT4hpoz8zOJbYkon-186" value="" style="sketch=0;points=[[0.015,0.015,0],[0.985,0.015,0],[0.985,0.985,0],[0.015,0.985,0],[0.25,0,0],[0.5,0,0],[0.75,0,0],[1,0.25,0],[1,0.5,0],[1,0.75,0],[0.75,1,0],[0.5,1,0],[0.25,1,0],[0,0.75,0],[0,0.5,0],[0,0.25,0]];verticalLabelPosition=bottom;html=1;verticalAlign=top;aspect=fixed;align=center;pointerEvents=1;shape=mxgraph.cisco19.rect;prIcon=load_balancer;fillColor=#FAFAFA;strokeColor=#005073;direction=south;" parent="1" vertex="1">
          <mxGeometry x="220" y="620" width="50" height="64" as="geometry" />
        </mxCell>
        <object label="" Name="Splunk server" id="RTcbFT4hpoz8zOJbYkon-188">
          <mxCell style="sketch=0;points=[[0.015,0.015,0],[0.985,0.015,0],[0.985,0.985,0],[0.015,0.985,0],[0.25,0,0],[0.5,0,0],[0.75,0,0],[1,0.25,0],[1,0.5,0],[1,0.75,0],[0.75,1,0],[0.5,1,0],[0.25,1,0],[0,0.75,0],[0,0.5,0],[0,0.25,0]];verticalLabelPosition=bottom;html=1;verticalAlign=top;aspect=fixed;align=center;pointerEvents=1;shape=mxgraph.cisco19.rect;prIcon=monitoring;fillColor=#FAFAFA;strokeColor=#005073;" parent="1" vertex="1">
            <mxGeometry x="113.5" y="946.5" width="50" height="50" as="geometry" />
          </mxCell>
        </object>
        <object label="" Name="FW management server" id="RTcbFT4hpoz8zOJbYkon-189">
          <mxCell style="sketch=0;pointerEvents=1;shadow=0;dashed=0;html=1;strokeColor=none;fillColor=#505050;labelPosition=center;verticalLabelPosition=bottom;verticalAlign=top;outlineConnect=0;align=center;shape=mxgraph.office.servers.server_generic;" parent="1" vertex="1">
            <mxGeometry x="207.5" y="945.5" width="27" height="52" as="geometry" />
          </mxCell>
        </object>
        <object label="" id="RTcbFT4hpoz8zOJbYkon-190">
          <mxCell style="sketch=0;pointerEvents=1;shadow=0;dashed=0;html=1;strokeColor=none;fillColor=#505050;labelPosition=center;verticalLabelPosition=bottom;verticalAlign=top;outlineConnect=0;align=center;shape=mxgraph.office.servers.server_generic;" parent="1" vertex="1">
            <mxGeometry x="298.5" y="943" width="27" height="52" as="geometry" />
          </mxCell>
        </object>
        <mxCell id="RTcbFT4hpoz8zOJbYkon-205" style="edgeStyle=none;rounded=0;orthogonalLoop=1;jettySize=auto;html=1;exitX=0.5;exitY=1;exitDx=0;exitDy=0;exitPerimeter=0;entryX=0.5;entryY=0;entryDx=0;entryDy=0;entryPerimeter=0;startArrow=none;" parent="1" source="RTcbFT4hpoz8zOJbYkon-242" target="RTcbFT4hpoz8zOJbYkon-202" edge="1">
          <mxGeometry relative="1" as="geometry" />
        </mxCell>
        <mxCell id="iWZ5erF8Yjs6RMHySBTV-10" style="edgeStyle=orthogonalEdgeStyle;rounded=0;orthogonalLoop=1;jettySize=auto;html=1;exitX=0.5;exitY=0;exitDx=0;exitDy=0;exitPerimeter=0;entryX=0.5;entryY=1;entryDx=0;entryDy=0;entryPerimeter=0;" edge="1" parent="1" source="RTcbFT4hpoz8zOJbYkon-191" target="iWZ5erF8Yjs6RMHySBTV-6">
          <mxGeometry relative="1" as="geometry" />
        </mxCell>
        <mxCell id="RTcbFT4hpoz8zOJbYkon-191" value="" style="sketch=0;points=[[0.015,0.015,0],[0.985,0.015,0],[0.985,0.985,0],[0.015,0.985,0],[0.25,0,0],[0.5,0,0],[0.75,0,0],[1,0.25,0],[1,0.5,0],[1,0.75,0],[0.75,1,0],[0.5,1,0],[0.25,1,0],[0,0.75,0],[0,0.5,0],[0,0.25,0]];verticalLabelPosition=bottom;html=1;verticalAlign=top;aspect=fixed;align=center;pointerEvents=1;shape=mxgraph.cisco19.rect;prIcon=asa_5500;fillColor=#FAFAFA;strokeColor=#005073;" parent="1" vertex="1">
          <mxGeometry x="560" y="670" width="64" height="50" as="geometry" />
        </mxCell>
        <mxCell id="RTcbFT4hpoz8zOJbYkon-203" value="" style="edgeStyle=none;rounded=0;orthogonalLoop=1;jettySize=auto;html=1;" parent="1" source="RTcbFT4hpoz8zOJbYkon-202" target="RTcbFT4hpoz8zOJbYkon-136" edge="1">
          <mxGeometry relative="1" as="geometry" />
        </mxCell>
        <mxCell id="RTcbFT4hpoz8zOJbYkon-204" value="" style="edgeStyle=none;rounded=0;orthogonalLoop=1;jettySize=auto;html=1;" parent="1" source="RTcbFT4hpoz8zOJbYkon-202" target="RTcbFT4hpoz8zOJbYkon-47" edge="1">
          <mxGeometry relative="1" as="geometry" />
        </mxCell>
        <mxCell id="RTcbFT4hpoz8zOJbYkon-202" value="" style="sketch=0;points=[[0.015,0.015,0],[0.985,0.015,0],[0.985,0.985,0],[0.015,0.985,0],[0.25,0,0],[0.5,0,0],[0.75,0,0],[1,0.25,0],[1,0.5,0],[1,0.75,0],[0.75,1,0],[0.5,1,0],[0.25,1,0],[0,0.75,0],[0,0.5,0],[0,0.25,0]];verticalLabelPosition=bottom;html=1;verticalAlign=top;aspect=fixed;align=center;pointerEvents=1;shape=mxgraph.cisco19.rect;prIcon=asa_5500;fillColor=#FAFAFA;strokeColor=#005073;" parent="1" vertex="1">
          <mxGeometry x="560" y="1190" width="64" height="50" as="geometry" />
        </mxCell>
        <mxCell id="RTcbFT4hpoz8zOJbYkon-206" value="" style="edgeStyle=orthogonalEdgeStyle;rounded=0;orthogonalLoop=1;jettySize=auto;html=1;" parent="1" source="RTcbFT4hpoz8zOJbYkon-207" target="RTcbFT4hpoz8zOJbYkon-210" edge="1">
          <mxGeometry relative="1" as="geometry">
            <Array as="points">
              <mxPoint x="866" y="785" />
            </Array>
          </mxGeometry>
        </mxCell>
        <mxCell id="RTcbFT4hpoz8zOJbYkon-207" value="" style="sketch=0;pointerEvents=1;shadow=0;dashed=0;html=1;strokeColor=none;fillColor=#505050;labelPosition=center;verticalLabelPosition=bottom;verticalAlign=top;outlineConnect=0;align=center;shape=mxgraph.office.devices.workstation_pc;" parent="1" vertex="1">
          <mxGeometry x="840" y="660" width="53" height="59" as="geometry" />
        </mxCell>
        <mxCell id="RTcbFT4hpoz8zOJbYkon-208" value="" style="edgeStyle=orthogonalEdgeStyle;rounded=0;orthogonalLoop=1;jettySize=auto;html=1;" parent="1" source="RTcbFT4hpoz8zOJbYkon-209" target="RTcbFT4hpoz8zOJbYkon-210" edge="1">
          <mxGeometry relative="1" as="geometry" />
        </mxCell>
        <mxCell id="RTcbFT4hpoz8zOJbYkon-209" value="" style="sketch=0;pointerEvents=1;shadow=0;dashed=0;html=1;strokeColor=none;fillColor=#505050;labelPosition=center;verticalLabelPosition=bottom;verticalAlign=top;outlineConnect=0;align=center;shape=mxgraph.office.devices.workstation_pc;" parent="1" vertex="1">
          <mxGeometry x="950" y="660" width="53" height="59" as="geometry" />
        </mxCell>
        <mxCell id="RTcbFT4hpoz8zOJbYkon-213" style="edgeStyle=none;rounded=0;orthogonalLoop=1;jettySize=auto;html=1;exitX=0;exitY=0.5;exitDx=0;exitDy=0;exitPerimeter=0;entryX=1;entryY=0.5;entryDx=0;entryDy=0;entryPerimeter=0;" parent="1" source="RTcbFT4hpoz8zOJbYkon-210" target="RTcbFT4hpoz8zOJbYkon-191" edge="1">
          <mxGeometry relative="1" as="geometry">
            <Array as="points">
              <mxPoint x="750" y="785" />
              <mxPoint x="750" y="695" />
            </Array>
          </mxGeometry>
        </mxCell>
        <mxCell id="RTcbFT4hpoz8zOJbYkon-210" value="" style="sketch=0;points=[[0.015,0.015,0],[0.985,0.015,0],[0.985,0.985,0],[0.015,0.985,0],[0.25,0,0],[0.5,0,0],[0.75,0,0],[1,0.25,0],[1,0.5,0],[1,0.75,0],[0.75,1,0],[0.5,1,0],[0.25,1,0],[0,0.75,0],[0,0.5,0],[0,0.25,0]];verticalLabelPosition=bottom;html=1;verticalAlign=top;aspect=fixed;align=center;pointerEvents=1;shape=mxgraph.cisco19.rect;prIcon=l2_switch;fillColor=#FAFAFA;strokeColor=#005073;" parent="1" vertex="1">
          <mxGeometry x="951.5" y="760" width="50" height="50" as="geometry" />
        </mxCell>
        <mxCell id="RTcbFT4hpoz8zOJbYkon-211" value="" style="edgeStyle=orthogonalEdgeStyle;rounded=0;orthogonalLoop=1;jettySize=auto;html=1;entryX=1;entryY=0.5;entryDx=0;entryDy=0;entryPerimeter=0;" parent="1" source="RTcbFT4hpoz8zOJbYkon-212" target="RTcbFT4hpoz8zOJbYkon-210" edge="1">
          <mxGeometry relative="1" as="geometry">
            <mxPoint x="1060" y="810" as="targetPoint" />
            <Array as="points">
              <mxPoint x="1110" y="785" />
            </Array>
          </mxGeometry>
        </mxCell>
        <mxCell id="RTcbFT4hpoz8zOJbYkon-212" value="" style="sketch=0;pointerEvents=1;shadow=0;dashed=0;html=1;strokeColor=none;fillColor=#505050;labelPosition=center;verticalLabelPosition=bottom;verticalAlign=top;outlineConnect=0;align=center;shape=mxgraph.office.devices.workstation_pc;" parent="1" vertex="1">
          <mxGeometry x="1083" y="660" width="53" height="59" as="geometry" />
        </mxCell>
        <mxCell id="RTcbFT4hpoz8zOJbYkon-216" value="" style="sketch=0;points=[[0.015,0.015,0],[0.985,0.015,0],[0.985,0.985,0],[0.015,0.985,0],[0.25,0,0],[0.5,0,0],[0.75,0,0],[1,0.25,0],[1,0.5,0],[1,0.75,0],[0.75,1,0],[0.5,1,0],[0.25,1,0],[0,0.75,0],[0,0.5,0],[0,0.25,0]];verticalLabelPosition=bottom;html=1;verticalAlign=top;aspect=fixed;align=center;pointerEvents=1;shape=mxgraph.cisco19.rect;prIcon=asa_5500;fillColor=#FAFAFA;strokeColor=#005073;" parent="1" vertex="1">
          <mxGeometry x="560" y="1190" width="64" height="50" as="geometry" />
        </mxCell>
        <mxCell id="RTcbFT4hpoz8zOJbYkon-217" value="" style="sketch=0;pointerEvents=1;shadow=0;dashed=0;html=1;strokeColor=none;fillColor=#505050;labelPosition=center;verticalLabelPosition=bottom;verticalAlign=top;outlineConnect=0;align=center;shape=mxgraph.office.devices.workstation_pc;" parent="1" vertex="1">
          <mxGeometry x="841.5" y="900" width="53" height="59" as="geometry" />
        </mxCell>
        <mxCell id="RTcbFT4hpoz8zOJbYkon-220" value="" style="ellipse;shape=cloud;whiteSpace=wrap;html=1;" parent="1" vertex="1">
          <mxGeometry x="322.5" y="360" width="200" height="110" as="geometry" />
        </mxCell>
        <mxCell id="RTcbFT4hpoz8zOJbYkon-221" value="&lt;font style=&quot;font-size: 24px;&quot;&gt;Internet&lt;/font&gt;" style="text;html=1;strokeColor=none;fillColor=none;align=center;verticalAlign=middle;whiteSpace=wrap;rounded=0;fontStyle=1;fontSize=24;" parent="1" vertex="1">
          <mxGeometry x="377.5" y="392.5" width="90" height="45" as="geometry" />
        </mxCell>
        <mxCell id="RTcbFT4hpoz8zOJbYkon-232" value="" style="rounded=0;whiteSpace=wrap;html=1;sketch=0;fontSize=18;strokeColor=#B5739D;fillColor=none;strokeWidth=3;" parent="1" vertex="1">
          <mxGeometry x="820" y="600" width="353" height="220" as="geometry" />
        </mxCell>
        <mxCell id="RTcbFT4hpoz8zOJbYkon-233" value="" style="rounded=0;whiteSpace=wrap;html=1;sketch=0;fontSize=18;strokeColor=#CCCC00;fillColor=none;strokeWidth=3;" parent="1" vertex="1">
          <mxGeometry x="820" y="860" width="353" height="200" as="geometry" />
        </mxCell>
        <mxCell id="RTcbFT4hpoz8zOJbYkon-234" value="" style="rounded=0;whiteSpace=wrap;html=1;sketch=0;fontSize=18;strokeColor=#00CCCC;fillColor=none;strokeWidth=3;" parent="1" vertex="1">
          <mxGeometry x="820" y="1090" width="360" height="220" as="geometry" />
        </mxCell>
        <mxCell id="RTcbFT4hpoz8zOJbYkon-236" value="" style="rounded=0;whiteSpace=wrap;html=1;sketch=0;fontSize=18;strokeColor=#FF0000;fillColor=none;strokeWidth=3;" parent="1" vertex="1">
          <mxGeometry x="820" y="1340" width="353" height="220" as="geometry" />
        </mxCell>
        <mxCell id="RTcbFT4hpoz8zOJbYkon-237" value="" style="rounded=0;whiteSpace=wrap;html=1;sketch=0;fontSize=18;strokeColor=#CC00CC;fillColor=none;strokeWidth=3;" parent="1" vertex="1">
          <mxGeometry x="-20" y="1350" width="390" height="230" as="geometry" />
        </mxCell>
        <mxCell id="RTcbFT4hpoz8zOJbYkon-238" value="" style="rounded=0;whiteSpace=wrap;html=1;sketch=0;fontSize=18;strokeColor=#FF9933;fillColor=none;strokeWidth=3;" parent="1" vertex="1">
          <mxGeometry x="-32.25" y="1060" width="394.5" height="273" as="geometry" />
        </mxCell>
        <mxCell id="RTcbFT4hpoz8zOJbYkon-239" value="" style="rounded=0;whiteSpace=wrap;html=1;sketch=0;fontSize=18;strokeColor=#FF0080;fillColor=none;strokeWidth=3;" parent="1" vertex="1">
          <mxGeometry x="-8" y="795" width="400" height="245" as="geometry" />
        </mxCell>
        <mxCell id="RTcbFT4hpoz8zOJbYkon-240" value="" style="rounded=0;whiteSpace=wrap;html=1;sketch=0;fontSize=18;strokeColor=#007FFF;fillColor=none;strokeWidth=3;" parent="1" vertex="1">
          <mxGeometry x="7.5" y="510" width="382.5" height="275" as="geometry" />
        </mxCell>
        <mxCell id="iWZ5erF8Yjs6RMHySBTV-9" style="edgeStyle=orthogonalEdgeStyle;rounded=0;orthogonalLoop=1;jettySize=auto;html=1;exitX=0.5;exitY=0;exitDx=0;exitDy=0;exitPerimeter=0;" edge="1" parent="1" source="iWZ5erF8Yjs6RMHySBTV-6" target="iWZ5erF8Yjs6RMHySBTV-8">
          <mxGeometry relative="1" as="geometry" />
        </mxCell>
        <mxCell id="iWZ5erF8Yjs6RMHySBTV-25" style="edgeStyle=orthogonalEdgeStyle;rounded=0;orthogonalLoop=1;jettySize=auto;html=1;exitX=0.145;exitY=0.145;exitDx=0;exitDy=0;exitPerimeter=0;entryX=0.55;entryY=0.95;entryDx=0;entryDy=0;entryPerimeter=0;" edge="1" parent="1" source="iWZ5erF8Yjs6RMHySBTV-6" target="RTcbFT4hpoz8zOJbYkon-220">
          <mxGeometry relative="1" as="geometry" />
        </mxCell>
        <mxCell id="iWZ5erF8Yjs6RMHySBTV-6" value="" style="sketch=0;points=[[0.5,0,0],[1,0.5,0],[0.5,1,0],[0,0.5,0],[0.145,0.145,0],[0.8555,0.145,0],[0.855,0.8555,0],[0.145,0.855,0]];verticalLabelPosition=bottom;html=1;verticalAlign=top;aspect=fixed;align=center;pointerEvents=1;shape=mxgraph.cisco19.rect;prIcon=router;fillColor=#FAFAFA;strokeColor=#005073;" vertex="1" parent="1">
          <mxGeometry x="567" y="510" width="50" height="50" as="geometry" />
        </mxCell>
        <mxCell id="iWZ5erF8Yjs6RMHySBTV-13" style="edgeStyle=orthogonalEdgeStyle;rounded=0;orthogonalLoop=1;jettySize=auto;html=1;exitX=0.5;exitY=1;exitDx=0;exitDy=0;exitPerimeter=0;" edge="1" parent="1" source="iWZ5erF8Yjs6RMHySBTV-12" target="iWZ5erF8Yjs6RMHySBTV-8">
          <mxGeometry relative="1" as="geometry">
            <mxPoint x="590" y="340" as="targetPoint" />
          </mxGeometry>
        </mxCell>
        <mxCell id="iWZ5erF8Yjs6RMHySBTV-8" value="" style="sketch=0;pointerEvents=1;shadow=0;dashed=0;html=1;strokeColor=none;fillColor=#505050;labelPosition=center;verticalLabelPosition=bottom;outlineConnect=0;verticalAlign=top;align=center;shape=mxgraph.office.clouds.cloud;labelBackgroundColor=#FFFFFF;labelBorderColor=default;" vertex="1" parent="1">
          <mxGeometry x="562" y="260" width="314" height="197.5" as="geometry" />
        </mxCell>
        <mxCell id="iWZ5erF8Yjs6RMHySBTV-26" style="edgeStyle=orthogonalEdgeStyle;rounded=0;orthogonalLoop=1;jettySize=auto;html=1;exitX=0.145;exitY=0.855;exitDx=0;exitDy=0;exitPerimeter=0;entryX=0.625;entryY=0.2;entryDx=0;entryDy=0;entryPerimeter=0;" edge="1" parent="1" source="iWZ5erF8Yjs6RMHySBTV-12" target="RTcbFT4hpoz8zOJbYkon-220">
          <mxGeometry relative="1" as="geometry" />
        </mxCell>
        <mxCell id="iWZ5erF8Yjs6RMHySBTV-12" value="" style="sketch=0;points=[[0.5,0,0],[1,0.5,0],[0.5,1,0],[0,0.5,0],[0.145,0.145,0],[0.8555,0.145,0],[0.855,0.8555,0],[0.145,0.855,0]];verticalLabelPosition=bottom;html=1;verticalAlign=top;aspect=fixed;align=center;pointerEvents=1;shape=mxgraph.cisco19.rect;prIcon=router;fillColor=#FAFAFA;strokeColor=#005073;" vertex="1" parent="1">
          <mxGeometry x="631" y="170" width="30" height="30" as="geometry" />
        </mxCell>
        <mxCell id="iWZ5erF8Yjs6RMHySBTV-16" style="edgeStyle=orthogonalEdgeStyle;rounded=0;orthogonalLoop=1;jettySize=auto;html=1;exitX=0.5;exitY=1;exitDx=0;exitDy=0;exitPerimeter=0;" edge="1" parent="1" source="iWZ5erF8Yjs6RMHySBTV-14" target="iWZ5erF8Yjs6RMHySBTV-8">
          <mxGeometry relative="1" as="geometry">
            <Array as="points">
              <mxPoint x="975" y="420" />
            </Array>
          </mxGeometry>
        </mxCell>
        <mxCell id="iWZ5erF8Yjs6RMHySBTV-14" value="" style="sketch=0;points=[[0.5,0,0],[1,0.5,0],[0.5,1,0],[0,0.5,0],[0.145,0.145,0],[0.8555,0.145,0],[0.855,0.8555,0],[0.145,0.855,0]];verticalLabelPosition=bottom;html=1;verticalAlign=top;aspect=fixed;align=center;pointerEvents=1;shape=mxgraph.cisco19.rect;prIcon=router;fillColor=#FAFAFA;strokeColor=#005073;" vertex="1" parent="1">
          <mxGeometry x="960" y="280" width="30" height="30" as="geometry" />
        </mxCell>
        <mxCell id="iWZ5erF8Yjs6RMHySBTV-17" value="" style="sketch=0;points=[[0.5,0,0],[1,0.5,0],[0.5,1,0],[0,0.5,0],[0.145,0.145,0],[0.8555,0.145,0],[0.855,0.8555,0],[0.145,0.855,0]];verticalLabelPosition=bottom;html=1;verticalAlign=top;aspect=fixed;align=center;pointerEvents=1;shape=mxgraph.cisco19.rect;prIcon=vbond;fillColor=#FAFAFA;strokeColor=#005073;" vertex="1" parent="1">
          <mxGeometry x="652" y="401" width="28" height="28" as="geometry" />
        </mxCell>
        <mxCell id="iWZ5erF8Yjs6RMHySBTV-18" value="" style="sketch=0;points=[[0.5,0,0],[1,0.5,0],[0.5,1,0],[0,0.5,0],[0.145,0.145,0],[0.8555,0.145,0],[0.855,0.8555,0],[0.145,0.855,0]];verticalLabelPosition=bottom;html=1;verticalAlign=top;aspect=fixed;align=center;pointerEvents=1;shape=mxgraph.cisco19.rect;prIcon=vmanage;fillColor=#FAFAFA;strokeColor=#005073;" vertex="1" parent="1">
          <mxGeometry x="707" y="400" width="30" height="30" as="geometry" />
        </mxCell>
        <mxCell id="iWZ5erF8Yjs6RMHySBTV-19" value="" style="sketch=0;points=[[0.5,0,0],[1,0.5,0],[0.5,1,0],[0,0.5,0],[0.145,0.145,0],[0.8555,0.145,0],[0.855,0.8555,0],[0.145,0.855,0]];verticalLabelPosition=bottom;html=1;verticalAlign=top;aspect=fixed;align=center;pointerEvents=1;shape=mxgraph.cisco19.rect;prIcon=vsmart;fillColor=#FAFAFA;strokeColor=#005073;" vertex="1" parent="1">
          <mxGeometry x="760" y="399" width="30" height="30" as="geometry" />
        </mxCell>
        <mxCell id="iWZ5erF8Yjs6RMHySBTV-22" style="edgeStyle=orthogonalEdgeStyle;rounded=0;orthogonalLoop=1;jettySize=auto;html=1;exitX=0.5;exitY=1;exitDx=0;exitDy=0;exitPerimeter=0;entryX=0.5;entryY=0;entryDx=0;entryDy=0;entryPerimeter=0;" edge="1" parent="1" source="iWZ5erF8Yjs6RMHySBTV-21" target="iWZ5erF8Yjs6RMHySBTV-12">
          <mxGeometry relative="1" as="geometry" />
        </mxCell>
        <mxCell id="iWZ5erF8Yjs6RMHySBTV-21" value="" style="shape=mxgraph.cisco.buildings.branch_office;html=1;pointerEvents=1;dashed=0;fillColor=#036897;strokeColor=#ffffff;strokeWidth=2;verticalLabelPosition=bottom;verticalAlign=top;align=center;outlineConnect=0;" vertex="1" parent="1">
          <mxGeometry x="620.5" y="70" width="51" height="75" as="geometry" />
        </mxCell>
        <mxCell id="iWZ5erF8Yjs6RMHySBTV-24" style="edgeStyle=orthogonalEdgeStyle;rounded=0;orthogonalLoop=1;jettySize=auto;html=1;exitX=0.5;exitY=1;exitDx=0;exitDy=0;exitPerimeter=0;entryX=0.5;entryY=0;entryDx=0;entryDy=0;entryPerimeter=0;" edge="1" parent="1" source="iWZ5erF8Yjs6RMHySBTV-23" target="iWZ5erF8Yjs6RMHySBTV-14">
          <mxGeometry relative="1" as="geometry" />
        </mxCell>
        <mxCell id="iWZ5erF8Yjs6RMHySBTV-23" value="" style="shape=mxgraph.cisco.buildings.branch_office;html=1;pointerEvents=1;dashed=0;fillColor=#036897;strokeColor=#ffffff;strokeWidth=2;verticalLabelPosition=bottom;verticalAlign=top;align=center;outlineConnect=0;" vertex="1" parent="1">
          <mxGeometry x="949.5" y="180" width="51" height="75" as="geometry" />
        </mxCell>
        <mxCell id="iWZ5erF8Yjs6RMHySBTV-28" value="&lt;font style=&quot;font-size: 20px&quot;&gt;&lt;b&gt;Cisco SD-WAN&lt;/b&gt;&lt;/font&gt;" style="text;html=1;strokeColor=none;fillColor=none;align=center;verticalAlign=middle;whiteSpace=wrap;rounded=0;" vertex="1" parent="1">
          <mxGeometry x="652" y="349" width="158" height="50" as="geometry" />
        </mxCell>
        <mxCell id="iWZ5erF8Yjs6RMHySBTV-29" value="" style="rounded=0;whiteSpace=wrap;html=1;fontSize=20;fillColor=none;strokeWidth=2;" vertex="1" parent="1">
          <mxGeometry x="567" y="50" width="150" height="130" as="geometry" />
        </mxCell>
        <mxCell id="iWZ5erF8Yjs6RMHySBTV-30" value="" style="rounded=0;whiteSpace=wrap;html=1;fontSize=20;fillColor=none;strokeWidth=2;" vertex="1" parent="1">
          <mxGeometry x="900" y="160" width="150" height="130" as="geometry" />
        </mxCell>
        <mxCell id="iWZ5erF8Yjs6RMHySBTV-31" value="&lt;font style=&quot;font-size: 18px&quot;&gt;Branch office 1&lt;/font&gt;" style="text;html=1;strokeColor=none;fillColor=none;align=center;verticalAlign=middle;whiteSpace=wrap;rounded=0;fontStyle=1" vertex="1" parent="1">
          <mxGeometry x="581" y="10" width="139" height="45" as="geometry" />
        </mxCell>
        <mxCell id="iWZ5erF8Yjs6RMHySBTV-32" value="&lt;font style=&quot;font-size: 18px&quot;&gt;Branch office 2&lt;/font&gt;" style="text;html=1;strokeColor=none;fillColor=none;align=center;verticalAlign=middle;whiteSpace=wrap;rounded=0;fontStyle=1" vertex="1" parent="1">
          <mxGeometry x="910" y="125" width="140" height="45" as="geometry" />
        </mxCell>
        <mxCell id="iWZ5erF8Yjs6RMHySBTV-34" value="&lt;font style=&quot;font-size: 18px&quot;&gt;&lt;b&gt;Guest network&lt;/b&gt; - 192.168.9.0/24&lt;/font&gt;" style="text;html=1;strokeColor=none;fillColor=none;align=center;verticalAlign=middle;whiteSpace=wrap;rounded=0;" vertex="1" parent="1">
          <mxGeometry x="830.5" y="600" width="307" height="45" as="geometry" />
        </mxCell>
        <mxCell id="iWZ5erF8Yjs6RMHySBTV-35" value="&lt;font style=&quot;font-size: 18px&quot;&gt;&lt;b&gt;DMZ&amp;nbsp;&lt;/b&gt;- 192.168.10.0/24&lt;/font&gt;" style="text;html=1;strokeColor=none;fillColor=none;align=center;verticalAlign=middle;whiteSpace=wrap;rounded=0;" vertex="1" parent="1">
          <mxGeometry x="77.75" y="500" width="307" height="45" as="geometry" />
        </mxCell>
        <mxCell id="iWZ5erF8Yjs6RMHySBTV-36" value="&lt;span style=&quot;font-size: 18px&quot;&gt;&lt;b&gt;Management network&lt;/b&gt; - 192.168.6.0/24&lt;/span&gt;" style="text;html=1;strokeColor=none;fillColor=none;align=center;verticalAlign=middle;whiteSpace=wrap;rounded=0;" vertex="1" parent="1">
          <mxGeometry x="48" y="790" width="329.5" height="45" as="geometry" />
        </mxCell>
        <mxCell id="iWZ5erF8Yjs6RMHySBTV-38" value="&lt;font style=&quot;font-size: 18px&quot;&gt;&lt;b&gt;Internal Servers&lt;/b&gt; - 192.168.7.0/24&lt;/font&gt;" style="text;html=1;strokeColor=none;fillColor=none;align=center;verticalAlign=middle;whiteSpace=wrap;rounded=0;" vertex="1" parent="1">
          <mxGeometry x="26" y="1070" width="307" height="45" as="geometry" />
        </mxCell>
        <mxCell id="iWZ5erF8Yjs6RMHySBTV-39" value="&lt;font style=&quot;font-size: 18px&quot;&gt;&lt;b&gt;Database network&lt;/b&gt; - 192.168.8.0/24&lt;/font&gt;" style="text;html=1;strokeColor=none;fillColor=none;align=center;verticalAlign=middle;whiteSpace=wrap;rounded=0;" vertex="1" parent="1">
          <mxGeometry x="21.5" y="1350" width="307" height="45" as="geometry" />
        </mxCell>
        <mxCell id="iWZ5erF8Yjs6RMHySBTV-40" value="&lt;font style=&quot;font-size: 18px&quot;&gt;&lt;b&gt;IT dept&lt;/b&gt; - 192.168.4.0/24 (VLAN 4)&lt;/font&gt;" style="text;html=1;strokeColor=none;fillColor=none;align=center;verticalAlign=middle;whiteSpace=wrap;rounded=0;" vertex="1" parent="1">
          <mxGeometry x="846.5" y="1335" width="307" height="45" as="geometry" />
        </mxCell>
        <mxCell id="iWZ5erF8Yjs6RMHySBTV-41" value="&lt;font style=&quot;font-size: 18px&quot;&gt;&lt;b&gt;Finance dept &lt;/b&gt;- 192.168.3.0/24 (VLAN 3)&lt;/font&gt;" style="text;html=1;strokeColor=none;fillColor=none;align=center;verticalAlign=middle;whiteSpace=wrap;rounded=0;" vertex="1" parent="1">
          <mxGeometry x="843" y="1095" width="337" height="45" as="geometry" />
        </mxCell>
        <mxCell id="iWZ5erF8Yjs6RMHySBTV-42" value="&lt;font style=&quot;font-size: 18px&quot;&gt;&lt;b&gt;HR dept&lt;/b&gt; - 192.168.2.0/24 (VLAN 2)&lt;/font&gt;" style="text;html=1;strokeColor=none;fillColor=none;align=center;verticalAlign=middle;whiteSpace=wrap;rounded=0;" vertex="1" parent="1">
          <mxGeometry x="851.5" y="855" width="307" height="45" as="geometry" />
        </mxCell>
        <mxCell id="iWZ5erF8Yjs6RMHySBTV-43" value="&lt;font style=&quot;font-size: 18px&quot;&gt;&lt;b&gt;Edge router&lt;/b&gt;&lt;/font&gt;" style="text;html=1;strokeColor=none;fillColor=none;align=center;verticalAlign=middle;whiteSpace=wrap;rounded=0;" vertex="1" parent="1">
          <mxGeometry x="590" y="515" width="165.5" height="45" as="geometry" />
        </mxCell>
        <mxCell id="iWZ5erF8Yjs6RMHySBTV-44" value="&lt;font style=&quot;font-size: 16px&quot;&gt;Edge router&lt;/font&gt;" style="text;html=1;strokeColor=none;fillColor=none;align=center;verticalAlign=middle;whiteSpace=wrap;rounded=0;fontStyle=1" vertex="1" parent="1">
          <mxGeometry x="954.5" y="290" width="155.5" height="35" as="geometry" />
        </mxCell>
        <mxCell id="iWZ5erF8Yjs6RMHySBTV-45" value="&lt;font style=&quot;font-size: 16px&quot;&gt;Edge router&lt;/font&gt;" style="text;html=1;strokeColor=none;fillColor=none;align=center;verticalAlign=middle;whiteSpace=wrap;rounded=0;fontStyle=1" vertex="1" parent="1">
          <mxGeometry x="624" y="180" width="155.5" height="35" as="geometry" />
        </mxCell>
        <mxCell id="iWZ5erF8Yjs6RMHySBTV-50" value="&lt;font style=&quot;font-size: 15px&quot;&gt;192.168.2.254/24&lt;br&gt;192.168.3.254/24&lt;br&gt;192.168.4.254/24&lt;/font&gt;" style="text;html=1;strokeColor=none;fillColor=none;align=center;verticalAlign=middle;whiteSpace=wrap;rounded=0;sketch=0;fontSize=18;" vertex="1" parent="1">
          <mxGeometry x="631" y="1115.5" width="230.5" height="62" as="geometry" />
        </mxCell>
        <mxCell id="RTcbFT4hpoz8zOJbYkon-241" value="Perimeter NGFW" style="text;html=1;strokeColor=none;fillColor=none;align=center;verticalAlign=middle;whiteSpace=wrap;rounded=0;sketch=0;fontSize=18;labelBackgroundColor=default;labelBorderColor=default;fontStyle=1" parent="1" vertex="1">
          <mxGeometry x="562" y="740" width="60" height="30" as="geometry" />
        </mxCell>
        <mxCell id="iWZ5erF8Yjs6RMHySBTV-51" value="" style="edgeStyle=none;rounded=0;orthogonalLoop=1;jettySize=auto;html=1;exitX=0.5;exitY=1;exitDx=0;exitDy=0;exitPerimeter=0;entryX=0.5;entryY=0;entryDx=0;entryDy=0;entryPerimeter=0;endArrow=none;" edge="1" parent="1" source="RTcbFT4hpoz8zOJbYkon-191" target="RTcbFT4hpoz8zOJbYkon-241">
          <mxGeometry relative="1" as="geometry">
            <mxPoint x="591.9999999999998" y="720" as="sourcePoint" />
            <mxPoint x="591.9999999999998" y="1190" as="targetPoint" />
          </mxGeometry>
        </mxCell>
        <mxCell id="iWZ5erF8Yjs6RMHySBTV-52" value="192.168.1.1/30" style="text;html=1;align=center;verticalAlign=middle;resizable=0;points=[];autosize=1;strokeColor=none;fillColor=none;fontSize=15;" vertex="1" parent="1">
          <mxGeometry x="675" y="1245.5" width="120" height="20" as="geometry" />
        </mxCell>
        <mxCell id="iWZ5erF8Yjs6RMHySBTV-53" value="192.168.1.2/30&lt;br&gt;192.168.1.6/30" style="text;html=1;align=center;verticalAlign=middle;resizable=0;points=[];autosize=1;strokeColor=none;fillColor=none;fontSize=15;" vertex="1" parent="1">
          <mxGeometry x="532" y="1245.5" width="120" height="40" as="geometry" />
        </mxCell>
        <mxCell id="iWZ5erF8Yjs6RMHySBTV-54" value="192.168.1.5/30" style="text;html=1;align=center;verticalAlign=middle;resizable=0;points=[];autosize=1;strokeColor=none;fillColor=none;fontSize=15;" vertex="1" parent="1">
          <mxGeometry x="384.75" y="1245.5" width="120" height="20" as="geometry" />
        </mxCell>
        <mxCell id="iWZ5erF8Yjs6RMHySBTV-55" value="&lt;font style=&quot;font-size: 15px&quot;&gt;192.168.6.253/24&lt;br&gt;192.168.7.253/24&lt;br&gt;192.168.8.253/24&lt;/font&gt;" style="text;html=1;strokeColor=none;fillColor=none;align=center;verticalAlign=middle;whiteSpace=wrap;rounded=0;sketch=0;fontSize=18;" vertex="1" parent="1">
          <mxGeometry x="327.5" y="1115.5" width="230.5" height="62" as="geometry" />
        </mxCell>
        <mxCell id="RTcbFT4hpoz8zOJbYkon-242" value="Internal FW" style="text;html=1;align=center;verticalAlign=middle;whiteSpace=wrap;rounded=0;sketch=0;fontSize=18;labelBackgroundColor=#FFFFFF;labelBorderColor=default;fontStyle=1" parent="1" vertex="1">
          <mxGeometry x="562" y="1130" width="60" height="30" as="geometry" />
        </mxCell>
        <mxCell id="iWZ5erF8Yjs6RMHySBTV-57" value="" style="edgeStyle=none;rounded=0;orthogonalLoop=1;jettySize=auto;html=1;exitX=0.5;exitY=1;exitDx=0;exitDy=0;exitPerimeter=0;entryX=0.5;entryY=0;entryDx=0;entryDy=0;entryPerimeter=0;startArrow=none;endArrow=none;" edge="1" parent="1" source="RTcbFT4hpoz8zOJbYkon-241" target="RTcbFT4hpoz8zOJbYkon-242">
          <mxGeometry relative="1" as="geometry">
            <mxPoint x="592" y="760" as="sourcePoint" />
            <mxPoint x="591.9999999999998" y="1190" as="targetPoint" />
          </mxGeometry>
        </mxCell>
        <mxCell id="iWZ5erF8Yjs6RMHySBTV-56" value="192.168.1.9/30" style="text;html=1;align=center;verticalAlign=middle;resizable=0;points=[];autosize=1;strokeColor=none;fillColor=none;fontSize=15;labelBackgroundColor=#FFFFFF;labelBorderColor=none;" vertex="1" parent="1">
          <mxGeometry x="532" y="1095" width="120" height="20" as="geometry" />
        </mxCell>
        <mxCell id="iWZ5erF8Yjs6RMHySBTV-58" value="192.168.1.10/30" style="text;html=1;align=center;verticalAlign=middle;resizable=0;points=[];autosize=1;strokeColor=none;fillColor=none;fontSize=15;labelBackgroundColor=#FFFFFF;labelBorderColor=none;" vertex="1" parent="1">
          <mxGeometry x="532" y="790" width="120" height="20" as="geometry" />
        </mxCell>
        <mxCell id="iWZ5erF8Yjs6RMHySBTV-59" value="192.168.9.254/30" style="text;html=1;align=center;verticalAlign=middle;resizable=0;points=[];autosize=1;strokeColor=none;fillColor=none;fontSize=15;labelBackgroundColor=#FFFFFF;labelBorderColor=none;" vertex="1" parent="1">
          <mxGeometry x="636.75" y="700" width="130" height="20" as="geometry" />
        </mxCell>
        <mxCell id="iWZ5erF8Yjs6RMHySBTV-62" value="192.168.10.254/30" style="text;html=1;align=center;verticalAlign=middle;resizable=0;points=[];autosize=1;strokeColor=none;fillColor=none;fontSize=15;labelBackgroundColor=#FFFFFF;labelBorderColor=none;" vertex="1" parent="1">
          <mxGeometry x="410" y="700" width="140" height="20" as="geometry" />
        </mxCell>
        <mxCell id="iWZ5erF8Yjs6RMHySBTV-63" value="192.168.1.13/30" style="text;html=1;align=center;verticalAlign=middle;resizable=0;points=[];autosize=1;strokeColor=none;fillColor=none;fontSize=15;labelBackgroundColor=#FFFFFF;labelBorderColor=none;" vertex="1" parent="1">
          <mxGeometry x="532" y="645" width="120" height="20" as="geometry" />
        </mxCell>
        <mxCell id="iWZ5erF8Yjs6RMHySBTV-64" value="192.168.1.14/30" style="text;html=1;align=center;verticalAlign=middle;resizable=0;points=[];autosize=1;strokeColor=none;fillColor=none;fontSize=15;labelBackgroundColor=#FFFFFF;labelBorderColor=none;" vertex="1" parent="1">
          <mxGeometry x="532" y="580" width="120" height="20" as="geometry" />
        </mxCell>
        <mxCell id="iWZ5erF8Yjs6RMHySBTV-66" value="WAF" style="text;html=1;align=center;verticalAlign=middle;resizable=0;points=[];autosize=1;strokeColor=none;fillColor=none;fontSize=15;labelBackgroundColor=#FFFFFF;labelBorderColor=none;fontStyle=1" vertex="1" parent="1">
          <mxGeometry x="167" y="575" width="50" height="20" as="geometry" />
        </mxCell>
        <mxCell id="iWZ5erF8Yjs6RMHySBTV-67" value="Load Balancer" style="text;html=1;align=center;verticalAlign=middle;resizable=0;points=[];autosize=1;strokeColor=none;fillColor=none;fontSize=15;labelBackgroundColor=#FFFFFF;labelBorderColor=none;fontStyle=1" vertex="1" parent="1">
          <mxGeometry x="93" y="632.5" width="120" height="20" as="geometry" />
        </mxCell>
        <mxCell id="iWZ5erF8Yjs6RMHySBTV-69" value="HTTPS" style="text;html=1;align=center;verticalAlign=middle;resizable=0;points=[];autosize=1;strokeColor=none;fillColor=none;fontSize=15;labelBackgroundColor=#FFFFFF;labelBorderColor=none;" vertex="1" parent="1">
          <mxGeometry x="3" y="1286.5" width="60" height="20" as="geometry" />
        </mxCell>
        <mxCell id="iWZ5erF8Yjs6RMHySBTV-70" value="SFTP" style="text;html=1;align=center;verticalAlign=middle;resizable=0;points=[];autosize=1;strokeColor=none;fillColor=none;fontSize=15;labelBackgroundColor=#FFFFFF;labelBorderColor=none;" vertex="1" parent="1">
          <mxGeometry x="98.5" y="1286.5" width="50" height="20" as="geometry" />
        </mxCell>
        <mxCell id="iWZ5erF8Yjs6RMHySBTV-71" value="DNS" style="text;html=1;align=center;verticalAlign=middle;resizable=0;points=[];autosize=1;strokeColor=none;fillColor=none;fontSize=15;labelBackgroundColor=#FFFFFF;labelBorderColor=none;" vertex="1" parent="1">
          <mxGeometry x="186" y="1286.5" width="50" height="20" as="geometry" />
        </mxCell>
        <mxCell id="iWZ5erF8Yjs6RMHySBTV-72" value="SMTP" style="text;html=1;align=center;verticalAlign=middle;resizable=0;points=[];autosize=1;strokeColor=none;fillColor=none;fontSize=15;labelBackgroundColor=#FFFFFF;labelBorderColor=none;" vertex="1" parent="1">
          <mxGeometry x="255" y="1285.5" width="60" height="20" as="geometry" />
        </mxCell>
        <mxCell id="iWZ5erF8Yjs6RMHySBTV-73" value="LDAP" style="text;html=1;align=center;verticalAlign=middle;resizable=0;points=[];autosize=1;strokeColor=none;fillColor=none;fontSize=15;labelBackgroundColor=#FFFFFF;labelBorderColor=none;" vertex="1" parent="1">
          <mxGeometry x="35" y="1015" width="50" height="20" as="geometry" />
        </mxCell>
        <mxCell id="iWZ5erF8Yjs6RMHySBTV-75" value="SIEM" style="text;html=1;align=center;verticalAlign=middle;resizable=0;points=[];autosize=1;strokeColor=none;fillColor=none;fontSize=15;labelBackgroundColor=#FFFFFF;labelBorderColor=none;" vertex="1" parent="1">
          <mxGeometry x="113.5" y="1015" width="50" height="20" as="geometry" />
        </mxCell>
        <mxCell id="iWZ5erF8Yjs6RMHySBTV-76" value="FW MGMT" style="text;html=1;align=center;verticalAlign=middle;resizable=0;points=[];autosize=1;strokeColor=none;fillColor=none;fontSize=15;labelBackgroundColor=#FFFFFF;labelBorderColor=none;" vertex="1" parent="1">
          <mxGeometry x="176" y="1015" width="90" height="20" as="geometry" />
        </mxCell>
        <mxCell id="iWZ5erF8Yjs6RMHySBTV-77" value="Syslog" style="text;html=1;align=center;verticalAlign=middle;resizable=0;points=[];autosize=1;strokeColor=none;fillColor=none;fontSize=15;labelBackgroundColor=#FFFFFF;labelBorderColor=none;" vertex="1" parent="1">
          <mxGeometry x="282" y="1015" width="60" height="20" as="geometry" />
        </mxCell>
      </root>
    </mxGraphModel>
  </diagram>
</mxfile>
